<?xml version="1.0" encoding="UTF-8" standalone="no"?>
<!-- Created with Inkscape (http://www.inkscape.org/) -->

<svg
   version="1.1"
   id="svg1"
   width="512"
   height="512"
   viewBox="0 0 512 512"
   xmlns="http://www.w3.org/2000/svg"
   xmlns:svg="http://www.w3.org/2000/svg">
  <defs
     id="defs1" />
  <g
     id="g1">
    <path
       style="fill:#18a83a;stroke:none;fill-opacity:1"
       d="m 244,33.333344 c -22.75702,4.424987 -44.79356,5.364196 -67,14 C 121.48309,68.923218 77.53344,111.28214 52.166668,165 14.337273,245.10928 32.981262,354.5603 99,415 153.99319,465.34589 226.29251,488.99866 300,474.66666 384.94852,458.14893 454.91522,389.38181 473.66666,305 480.06393,276.2121 479.22412,248.01767 476,219 466.22742,131.04544 388.64594,57.254578 305,38.666656 286.52829,34.561859 262.99033,29.640778 244,33.333344 m -1,7.833312 c 26.4108,-4.035003 57.11575,2.871949 82,11.166688 C 409.16626,80.388763 462.60666,156.66766 471,243 c 3.34247,34.37994 -5.60535,69.65305 -18.66666,101 -9.32174,22.37207 -24.10809,43.77475 -41.33334,61 -14.77438,14.77438 -30.58371,28.19116 -49,38.16666 -22.95728,12.43521 -48.66687,22.90744 -75,25.83334 -68.57635,7.6196 -132.29449,-12.58151 -183,-60.16666 -82.199242,-77.1408 -85.778313,-228.95944 0,-305.5 29.18315,-26.04031 60.66599,-46.4165 99,-55.999996 13.28075,-3.320191 26.61842,-4.122254 40,-6.166688 m 11,72.166684 c -9.86227,3.15049 -20.01682,12.09314 -29,17.33332 -21.63641,12.62118 -42.95844,26.22744 -65,38.16668 -7.4319,4.02564 -14.73933,8.4971 -22,12.83332 -2.26189,1.35086 -6.85559,2.92233 -7.83333,5.5 C 127.16676,195.0755 130,209.47968 130,218 v 74 24 c 0,2.47318 -0.98354,7.565 0.5,9.66669 3.5278,4.99771 14.26895,8.61517 19.5,11.66662 17.03683,9.93817 33.98154,20.07257 51,30 14.04785,8.19461 28.05208,16.50333 42,24.83335 3.97186,2.3721 10.06009,8.07803 15,6.5 9.08899,-2.90342 17.60632,-10.9534 26,-15.49997 23.09949,-12.51221 44.88239,-27.47803 68,-40 7.43195,-4.02564 14.73929,-8.4971 22,-12.83338 2.26187,-1.35083 6.85562,-2.9223 7.83334,-5.5 C 384.83325,316.9245 382,302.52032 382,294 v -73 c 0,-8.29559 3.53732,-26.82254 -0.5,-34 -2.93997,-5.22662 -14.35791,-9.38135 -19.5,-12.16666 -17.34006,-9.39257 -33.6781,-20.61725 -51,-30 -14.31909,-7.75622 -27.84631,-16.94024 -42,-25 -3.99841,-2.27688 -10.08185,-8.07107 -15,-6.5 m 2,10 c 4.58298,0 11.06436,6.03754 15,8.33332 11.34842,6.61987 22.69635,13.24923 34,20 15.92212,9.50903 32.07825,18.65783 48,28.16668 5.10172,3.04685 16.54425,6.91199 19.5,12.16666 3.27426,5.82089 0.5,20.30511 0.5,27 v 71 c 0,7.38104 3.10138,23.59753 -0.5,30 -2.57462,4.57712 -12.0791,7.75446 -16.5,10.33331 -13.03864,7.6059 -25.98438,15.40753 -39,23 -14.73349,8.59458 -29.35107,17.25135 -44,26 -3.92966,2.3469 -13.39151,10.35746 -18,9.33335 -7.77582,-1.72794 -15.98962,-9.70273 -23,-13.49997 -20.72839,-11.22785 -40.2532,-24.76221 -61,-36 -8.10266,-4.38895 -26.21138,-11.00782 -31.5,-18.5 C 137.4559,317.77087 139,309.48712 139,306 v -39 -55 c 0,-4.6922 -2.20712,-16.83157 0.5,-20.66666 4.31013,-6.10601 18.05536,-10.65112 24.5,-14.5 20.90245,-12.48343 42.10052,-24.51834 63,-37 6.89749,-4.11935 21.09163,-16.5 29,-16.5 M 318,170 c -14.51819,7.25912 -28.62256,25.55121 -46,20.16666 -2.85852,-0.88575 -4.03625,-4.20291 -6,-6.16666 -5.69452,-5.69452 -15.83485,-12.78513 -24,-13 l -1,28 3.16667,12.66666 L 230,234 c 3.79347,1.39761 16.14626,6.51144 16.66667,11 0.80817,6.97043 -10.28154,18.88193 -14.33334,24 C 219.86227,284.75293 214.46165,298.13245 209,317 h -1 c -5.78006,-15.68878 4.07831,-26.62994 9.66667,-41 7.69219,-19.77988 4.99227,-42.99353 -10.66667,-58 -4.62349,-4.43085 -10.83115,-7.95309 -17,-9.66666 -8.48155,-2.35598 -15.48918,-1.55731 -24,-1.33334 3.49916,12.08795 12.41362,17.45999 11,32 -1.10965,11.41351 -6.62256,22.04117 -9.66667,33 -6.85001,24.6601 -5.25641,55.3205 19.66667,69.16669 6.08871,3.3826 13.09428,4.83331 20,4.83331 v 7 h 108 c -1.1409,-6.19354 -4.25375,-11.46741 -11,-12 L 306.33334,297 315,272 313.83334,245 331,234 c -2.79385,-7.58328 -12.62198,-15.20084 -14.16666,-22.66666 -0.43988,-2.1261 2.32547,-7.04806 2.83332,-9.33334 1.87408,-8.43335 3.81363,-24.90793 -1.66666,-32 m -72,12 h 1 c 4.44998,7.35214 9.48431,20.08804 1,25 -2.74199,-5.48401 -5.7059,-19.90436 -2,-25 m 70,0 -2,25 c -10.52994,-3.0481 -3.5867,-17.82663 0,-25 h 2 m -99,73 -12,-9 -9,9.66666 -9.66667,-9.83332 L 179,253 l 3,-21 -7,-21 c 25.8988,0 42,18.91708 42,44 m 106,-24 v 2 l -40,25 c -1.42157,-4.50159 2.45264,-4.37772 4.5,-8 1.54904,-2.7406 0.9393,-6.38055 2.83334,-9 7.15424,-9.8942 22.60791,-15.02936 32.66666,-10 m -44,26 c -7.5484,0 -13.13464,-6.43057 -19,-10.66666 -6.96133,-5.02761 -14.81534,-8.79565 -22,-13.33334 4.73416,-7.53162 12.68448,-4.85947 19,-1 11.12,6.79553 17.1095,12.93686 22,25 m 30,-10 c 7.80597,18.53909 -1.77222,41.58594 -15,55 -3.76929,3.82239 -7.80771,9.49695 -13,11 l -7,-52 c 16.03122,4.64059 21.38809,-10.41794 35,-14 m -23,70 6,32 c -2.71362,-1.92578 -8.68561,-6.44507 -10.5,-9.16669 C 278.0961,334.72748 280.24353,318.66635 286,317 m -19,21 3,11 h -5 c -1.41464,-4.88702 -6.96344,-10.05646 2,-11 z"
       id="path1" />
    <path
       style="fill:#18a83a;stroke:#ffffff;stroke-width:3.21507;paint-order:markers fill stroke;fill-opacity:1"
       d="M 232.24867,468.64763 C 182.12963,462.28952 138.03571,441.15144 102.53821,406.46604 69.394056,374.08015 48.883592,330.66647 43.011616,280.46846 41.449937,267.11808 41.43501,240.99069 42.981508,227.77007 48.888995,177.2685 70.807202,133.36811 105.29356,102.96408 c 31.71073,-27.956963 60.97586,-44.898928 93.06328,-53.875537 9.05909,-2.534325 17.01034,-3.949918 36.7452,-6.541897 26.35345,-3.461265 44.49073,-2.229607 71.53532,4.857787 40.53321,10.622264 71.28948,27.860405 98.91722,55.440687 17.36349,17.33367 29.71336,34.48354 40.83251,56.70276 10.83541,21.65224 18.06856,43.87595 22.36699,68.72214 1.53139,8.8519 1.80903,13.39743 1.81646,29.7394 0.01,22.01674 -1.14018,30.61497 -6.91053,51.66008 -8.09617,29.52755 -19.33889,53.26365 -35.41408,74.76766 -6.80475,9.10281 -29.3634,32.03105 -39.22238,39.86498 -26.33651,20.92694 -62.5317,37.51789 -94.04082,43.1059 -8.37987,1.48614 -13.71498,1.82608 -32.1507,2.04857 -15.1928,0.18336 -24.75486,-0.0696 -30.58336,-0.80898 z m 30.81101,-71.6828 c 2.30619,-1.1582 6.92469,-4.00979 10.26334,-6.33687 3.33866,-2.32708 10.39172,-6.68427 15.67347,-9.68265 5.28176,-2.99839 17.84133,-10.45578 27.91017,-16.57198 10.06883,-6.1162 25.98343,-15.51882 35.36578,-20.89471 9.38234,-5.37588 19.84715,-11.37339 23.25513,-13.32778 3.71032,-2.12779 6.42184,-4.25211 6.75843,-5.29485 0.30915,-0.95777 0.64972,-29.41109 0.7568,-63.22962 0.10708,-33.81852 0.21628,-63.47755 0.24265,-65.90894 0.1013,-9.33769 -2.20919,-11.99262 -16.80344,-19.3085 -5.27107,-2.6423 -17.27551,-9.45907 -26.67653,-15.14837 -9.40102,-5.6893 -21.43311,-12.78664 -26.73798,-15.77188 -9.77231,-5.49921 -29.2293,-17.1702 -44.58768,-26.74527 -10.60576,-6.61207 -12.96862,-7.01054 -20.13122,-3.39487 -2.82661,1.42687 -9.31445,5.38538 -14.41742,8.7967 -10.84113,7.24726 -49.24805,30.27577 -71.16823,42.67196 -25.62779,14.4929 -32.03446,18.35893 -32.88086,19.84155 -0.53436,0.93602 -0.73941,24.79981 -0.59925,69.74313 0.2003,64.23269 0.29934,68.44047 1.65532,70.32967 0.79326,1.10518 6.28903,4.56856 12.21282,7.69638 11.63737,6.14465 94.6168,54.83238 102.18601,59.95708 7.99866,5.41547 11.16008,5.87566 17.72269,2.57982 z"
       id="path2" />
  </g>
</svg>
