<?xml version="1.0" encoding="UTF-8" standalone="no" ?>
<!DOCTYPE svg PUBLIC "-//W3C//DTD SVG 1.1//EN" "http://www.w3.org/Graphics/SVG/1.1/DTD/svg11.dtd">
<svg xmlns="http://www.w3.org/2000/svg" xmlns:xlink="http://www.w3.org/1999/xlink" version="1.1" width="1080" height="1080" viewBox="0 0 1080 1080" xml:space="preserve">
<desc>Created with Fabric.js 5.2.4</desc>
<defs>
</defs>
<g transform="matrix(1 0 0 1 540 540)" id="896e9c11-06cb-487f-a243-398239d14b72"  >
<rect style="stroke: none; stroke-width: 1; stroke-dasharray: none; stroke-linecap: butt; stroke-dashoffset: 0; stroke-linejoin: miter; stroke-miterlimit: 4; fill: rgb(255,255,255); fill-rule: nonzero; opacity: 1; visibility: hidden;" vector-effect="non-scaling-stroke"  x="-540" y="-540" rx="0" ry="0" width="1080" height="1080" />
</g>
<g transform="matrix(1 0 0 1 540 540)" id="960841f6-2a79-4838-95f5-79aa6e895845"  >
</g>
<g transform="matrix(1.83 0 0 2.04 575.2 539.86)" id="dbfa3266-aac9-42be-b2e5-79b245f503a7"  >
<path style="stroke: rgb(0,0,0); stroke-width: 0; stroke-dasharray: none; stroke-linecap: butt; stroke-dashoffset: 0; stroke-linejoin: miter; stroke-miterlimit: 4; fill: rgb(36,66,203); fill-rule: nonzero; opacity: 1;" vector-effect="non-scaling-stroke"  transform=" translate(-385.09, -406.95)" d="M 383.58 664.79 C 376.67 665.04 374.74 664.72 370.28 662.6 C 367.4 661.23 357.05 655.3 347.28 649.42 C 337.5 643.53 322.52 633.98 314 628.2 C 305.48 622.42 294.26 614.31 289.07 610.18 C 283.88 606.05 276.1 599.3 271.79 595.18 C 267.47 591.05 259.98 582.46 255.13 576.09 C 250.29 569.72 244.42 561.35 242.08 557.5 C 239.75 553.65 235.43 545.55 232.48 539.5 C 229.54 533.45 222.83 517.79 217.58 504.7 C 212.33 491.6 206.91 477.2 205.54 472.7 C 204.17 468.19 202.16 460.19 201.08 454.93 C 200 449.66 198.34 439.99 197.39 433.43 C 196.11 424.65 195.67 415.3 195.72 398 C 195.75 385.07 196.27 371.87 196.88 368.65 C 197.48 365.43 199.93 358.68 202.32 353.65 C 204.71 348.62 208.77 341.14 211.33 337.03 C 213.9 332.92 216 328.91 216 328.13 C 216 327.34 213.69 323.1 210.87 318.71 C 208.05 314.31 204.5 307.96 202.99 304.61 C 201.47 301.25 199.09 294.87 197.69 290.44 C 196.3 286.01 194.23 276.31 193.1 268.89 C 191.96 261.47 190.53 246.58 189.92 235.8 C 189.09 221.27 189.09 210.93 189.93 195.85 C 190.55 184.66 191.45 173.8 191.93 171.73 C 192.41 169.65 193.55 166.8 194.48 165.39 C 195.4 163.99 197.75 162.16 199.71 161.35 C 202.61 160.14 204.14 160.07 208.04 161.01 C 210.66 161.64 218.72 165.03 225.94 168.54 C 233.16 172.06 246.14 179.07 254.78 184.12 C 263.43 189.18 275.12 196.41 280.76 200.19 C 286.4 203.97 294.8 209.94 299.42 213.47 C 307.82 219.87 307.82 219.87 323.54 215.44 C 332.19 213 344.27 210 350.38 208.76 C 360.06 206.81 364.62 206.52 385.5 206.51 C 404.49 206.5 411.3 206.87 418.11 208.26 C 422.85 209.22 431.47 211.52 437.26 213.36 C 445.2 215.87 448.25 216.45 449.64 215.68 C 450.67 215.12 454.43 211.99 458 208.72 C 461.57 205.46 469.1 199.47 474.71 195.42 C 480.33 191.37 488.65 185.72 493.21 182.87 C 497.76 180.01 505.93 175.03 511.36 171.79 C 516.78 168.55 527.01 162.72 534.09 158.84 C 541.17 154.95 548.66 151.17 550.73 150.43 C 552.8 149.69 555.64 149.07 557.03 149.04 C 558.42 149.02 560.6 149.73 561.88 150.63 C 563.16 151.53 564.81 153.68 565.53 155.42 C 566.26 157.16 567.41 163.29 568.09 169.04 C 568.82 175.32 569.31 192.51 569.31 212 C 569.3 235.79 568.86 247.98 567.68 257.5 C 566.8 264.65 564.98 274.81 563.64 280.09 C 562.3 285.36 559.76 293.23 557.99 297.59 C 556.23 301.94 554.42 306.71 553.98 308.19 C 553.31 310.41 553.96 312.14 557.7 318.19 C 560.18 322.21 564.77 329.77 567.89 335 C 571.01 340.23 575.1 347.88 576.98 352 C 580.15 358.94 580.44 360.4 580.82 371.56 C 581.04 378.19 580.71 389.85 580.07 397.48 C 579.44 405.11 578.08 415.66 577.06 420.92 C 576.03 426.19 573.38 435.27 571.16 441.1 C 568.94 446.93 566.39 455.71 565.49 460.6 C 564.59 465.5 562.29 475.8 560.37 483.5 C 558.46 491.2 555.06 503.12 552.82 510 C 550.58 516.88 547.13 526.1 545.15 530.5 C 543.17 534.9 539.55 542.1 537.1 546.5 C 534.66 550.9 530.97 557.01 528.9 560.09 C 526.84 563.16 521.85 568.96 517.82 572.98 C 513.8 577 505.77 584.61 500 589.9 C 494.23 595.18 487.02 601.57 484 604.11 C 480.98 606.64 473.77 612.3 468 616.69 C 462.23 621.08 451.21 628.87 443.52 634.01 C 435.84 639.14 424.81 646.22 419.02 649.73 C 413.24 653.25 404.71 658.01 400.08 660.31 C 392.6 664.03 390.75 664.53 383.58 664.79 z M 386.87 643 C 387.29 643 388.79 641.76 390.22 640.25 C 391.64 638.74 398.39 629.4 405.2 619.5 C 412.02 609.6 424.73 591.38 433.44 579 C 442.16 566.62 452.8 552 457.09 546.5 C 461.38 541 472.23 527.67 481.19 516.87 C 490.16 506.07 498.85 495.4 500.5 493.14 C 502.15 490.89 503.79 489.04 504.14 489.02 C 504.5 489.01 505.01 489.59 505.29 490.3 C 505.56 491.02 504.47 498.98 502.85 507.99 C 501.23 517 498.74 527.33 497.31 530.94 C 495.87 534.55 492.48 540.17 489.78 543.43 C 487.07 546.69 483.56 551.91 481.99 555.03 C 480.41 558.15 478.17 563.52 477.01 566.97 C 475.85 570.41 475.12 573.45 475.38 573.71 C 475.65 573.98 479.38 571.54 483.68 568.3 C 487.98 565.06 494.51 560.3 498.18 557.71 C 501.85 555.12 505.26 553 505.74 553 C 506.23 553 507.76 551.76 509.15 550.25 C 510.54 548.74 512.62 545.92 513.77 544 C 514.92 542.07 519.95 536.52 524.95 531.66 C 529.95 526.8 534.65 521.62 535.4 520.16 C 536.14 518.7 537.91 513.44 539.33 508.47 C 540.75 503.51 543.52 492.71 545.48 484.47 C 547.44 476.24 550.17 465.83 551.53 461.36 C 552.89 456.88 554 452.94 554 452.61 C 554 452.27 553.38 452 552.63 452 C 551.87 452 546.51 454.48 540.72 457.5 C 534.93 460.53 529.7 463 529.09 463 C 528.49 463 528 462.34 528 461.53 C 528 460.73 530.27 455.66 533.05 450.28 C 535.83 444.9 541.12 436.53 544.8 431.67 C 548.49 426.82 552.92 420.87 554.65 418.45 C 556.81 415.45 558.45 411.28 559.83 405.27 C 560.95 400.43 562.62 392.2 563.55 386.99 C 564.49 381.77 565.31 373 565.38 367.5 C 565.5 357.5 565.5 357.5 558.13 344.53 C 554.07 337.4 549.66 329.84 548.33 327.74 C 547 325.63 545.47 322.75 544.94 321.34 C 544.26 319.55 543.44 318.94 542.23 319.31 C 541.28 319.6 537.8 320.99 534.5 322.4 C 531.2 323.8 527.71 324.96 526.75 324.98 C 525.79 324.99 525 324.31 525 323.46 C 525 322.61 525.85 320.25 526.89 318.21 C 527.93 316.17 531.27 308.43 534.31 301 C 537.35 293.57 541.25 282.77 542.97 277 C 544.69 271.23 547.19 259.6 548.52 251.17 C 549.85 242.74 551.44 228.11 552.06 218.67 C 552.68 209.23 553.03 194.9 552.84 186.83 C 552.65 178.76 552.2 171.86 551.84 171.5 C 551.47 171.14 550.12 171.4 548.84 172.08 C 547.55 172.76 538.85 178.3 529.5 184.39 C 520.15 190.47 508.68 198.14 504 201.41 C 499.32 204.69 492.13 210.1 488.01 213.44 C 483.89 216.77 475.34 224.15 469.01 229.83 C 462.68 235.51 456.76 240.56 455.86 241.05 C 454.69 241.69 453.26 241.24 450.86 239.48 C 449.01 238.12 445.21 235.88 442.41 234.5 C 439.61 233.13 433.96 231.14 429.85 230.09 C 425.75 229.04 417.93 227.65 412.5 227 C 407.06 226.35 400.11 226.12 397.05 226.48 C 394 226.84 388.8 227.82 385.5 228.66 C 382.2 229.49 374.06 232.35 367.41 235 C 360.76 237.66 347.26 243.87 337.41 248.81 C 327.56 253.75 318.43 258.94 317.12 260.34 C 315.76 261.81 315 263.55 315.34 264.44 C 315.82 265.69 317.05 265.86 321.96 265.35 C 328 264.72 328 264.72 327.96 271.11 C 327.93 274.62 327.55 279.39 327.1 281.71 C 326.65 284.02 325.43 287.11 324.39 288.57 C 323.35 290.02 321.5 292.85 320.27 294.86 C 319.05 296.86 317.31 301.79 316.41 305.82 C 315.13 311.54 314.3 313.31 312.63 313.92 C 311.46 314.35 306.95 315.26 302.6 315.95 C 298.26 316.63 293.01 317.79 290.94 318.52 C 288.86 319.25 284.86 321.44 282.04 323.38 C 279.22 325.32 273.5 328.17 269.34 329.7 C 263.57 331.84 261.54 333.09 260.79 335 C 260.19 336.54 260.07 344.05 260.48 354.5 C 260.85 363.85 261.58 374.64 262.1 378.49 C 262.94 384.58 263.54 385.97 266.78 389.29 C 268.83 391.39 275 396.61 280.5 400.88 C 286 405.16 293.88 410.93 298 413.7 C 302.12 416.48 310.9 422.24 317.5 426.51 C 324.1 430.77 334.45 438.01 340.5 442.59 C 346.55 447.17 355.06 453.85 359.41 457.42 C 365.61 462.52 368.31 464.09 371.91 464.67 C 374.43 465.08 380.37 465.37 385.11 465.32 C 391.44 465.25 394.94 464.68 398.34 463.18 C 400.88 462.05 406 458.98 409.73 456.36 C 413.45 453.74 423.48 446.59 432 440.49 C 440.52 434.38 456.5 423.31 467.5 415.89 C 478.5 408.46 491.32 399.52 496 396 C 500.68 392.49 508.92 385.14 514.32 379.67 C 519.72 374.2 525.96 367.31 528.19 364.36 C 530.42 361.41 532.64 359 533.12 359 C 533.6 359 533.98 362.94 533.95 367.75 C 533.92 372.56 533.56 379.56 533.14 383.31 C 532.72 387.05 532.75 390.35 533.21 390.63 C 533.66 390.91 536.84 388.49 540.27 385.27 C 543.69 382.04 549.5 376.81 553.16 373.65 C 556.83 370.49 560.07 368.3 560.37 368.79 C 560.67 369.27 560.01 371.5 558.9 373.73 C 557.8 375.96 552.76 381.86 547.7 386.83 C 542.64 391.8 535.12 398.67 531 402.08 C 526.88 405.5 514.8 414.78 504.17 422.72 C 493.54 430.65 478.92 441.02 471.67 445.77 C 464.43 450.51 453.77 457.26 448 460.76 C 442.23 464.26 431.6 470.06 424.39 473.64 C 411.28 480.17 411.28 480.17 406.62 488.01 C 404.05 492.32 399.9 500.27 397.38 505.67 C 394.87 511.08 391.73 518.37 390.41 521.87 C 389.08 525.37 388 529.5 388 531.04 C 388 532.59 389.31 537.15 390.91 541.17 C 392.51 545.2 394.52 550.88 395.37 553.8 C 396.72 558.39 396.73 559.17 395.47 559.65 C 394.68 559.95 392 559.02 389.52 557.56 C 387.03 556.11 378.92 549.27 371.49 542.36 C 364.05 535.45 356.84 527.88 355.46 525.53 C 354.09 523.18 351.6 517.26 349.94 512.38 C 348.28 507.49 345.54 498.32 343.85 492 C 342.16 485.68 340.66 480.37 340.52 480.21 C 340.37 480.05 336 478.44 330.8 476.63 C 325.57 474.81 317.15 470.75 311.93 467.52 C 306.74 464.32 296.88 457.88 290 453.2 C 283.12 448.52 275.93 443.48 274 442.01 C 272.07 440.53 269.05 438.49 267.28 437.47 C 265.51 436.44 263.77 435.9 263.41 436.25 C 263.06 436.61 265.3 441.91 268.38 448.03 C 271.47 454.16 274 459.81 274 460.58 C 274 461.36 273.36 462 272.58 462 C 271.8 462 268.4 458.96 265.04 455.25 C 261.67 451.54 257.64 445.8 256.07 442.5 C 254.51 439.2 251.97 433.8 250.44 430.5 C 248.65 426.67 245.27 422.12 241.07 417.91 C 237.46 414.29 229.55 407.65 223.5 403.17 C 217.45 398.68 212.16 395 211.75 395 C 211.34 395 211 396.69 211.01 398.75 C 211.01 400.81 211.45 404.07 211.99 406 C 212.52 407.93 214.43 411.59 216.23 414.13 C 218.03 416.68 221.81 421.74 224.63 425.37 C 229.76 431.98 229.76 431.98 230.42 441.74 C 230.78 447.11 231.33 453.87 231.65 456.78 C 232.02 460.06 233.23 463.53 234.87 465.95 C 236.32 468.1 243.12 476.23 250 484.01 C 258.72 493.88 264.92 502.11 270.5 511.22 C 276.58 521.14 279.34 524.73 282 526.15 C 283.93 527.18 290.32 530.27 296.22 533.02 C 306.07 537.63 307.15 538.41 309.62 542.76 C 311.1 545.37 315.69 552.9 319.82 559.5 C 323.95 566.1 332.93 580.5 339.77 591.5 C 346.61 602.49 355.16 615.89 358.78 621.27 C 362.39 626.65 365.92 631.52 366.62 632.1 C 367.59 632.9 368.03 632.26 368.53 629.32 C 368.88 627.22 370.72 619.48 372.62 612.13 C 374.51 604.77 376.54 597.86 377.12 596.77 C 377.81 595.49 378.53 595.13 379.15 595.75 C 379.69 596.29 380.98 605.22 382.03 615.61 C 383.08 626 384.22 636.07 384.56 637.99 C 384.9 639.91 385.39 641.83 385.65 642.24 C 385.91 642.66 386.46 643 386.87 643 z M 383.79 453.96 C 380.33 453.94 376.15 453.33 374.5 452.61 C 372.85 451.88 369.63 449.25 367.33 446.76 C 365.04 444.27 362.45 440.85 361.58 439.15 C 360.71 437.46 358.86 429.87 357.48 422.29 C 356.1 414.71 354.28 405.4 353.44 401.62 C 352.6 397.83 351.3 393.25 350.54 391.45 C 349.79 389.64 348.21 387.65 347.04 387.02 C 345.86 386.39 338.79 384.56 331.31 382.96 C 323.83 381.35 315.85 379.14 313.58 378.04 C 311.3 376.94 307.54 374.21 305.22 371.98 C 302.9 369.75 300.09 366.14 298.97 363.95 C 297.86 361.76 296.5 357.64 295.96 354.81 C 295.43 351.97 294.84 349.51 294.67 349.33 C 294.49 349.16 291.91 348.56 288.92 348 C 285.94 347.44 282.94 346.22 282.25 345.3 C 281.56 344.37 281 342.37 281 340.84 C 281 339.13 281.74 337.68 282.93 337.04 C 284 336.47 287.95 336 291.72 336 C 295.49 336 301.26 336.68 304.54 337.51 C 307.82 338.34 314.11 340.79 318.52 342.94 C 322.93 345.1 329.09 349.1 332.22 351.84 C 335.34 354.57 340.44 359.66 343.55 363.14 C 346.66 366.63 350.01 371.06 350.99 372.99 C 351.97 374.92 353.9 380.1 355.27 384.5 C 356.65 388.9 358.51 398.12 359.41 405 C 360.31 411.88 361.27 418.52 361.54 419.77 C 362.05 422.04 362.05 422.04 380.69 421.77 C 399.33 421.5 399.33 421.5 400.05 419 C 400.44 417.62 401.3 412.39 401.95 407.36 C 402.6 402.33 404 394.68 405.07 390.36 C 406.13 386.04 408.77 378.9 410.93 374.5 C 413.99 368.27 416.71 364.68 423.18 358.27 C 427.76 353.75 433.07 348.87 435 347.44 C 436.93 346.01 441.43 343.35 445 341.53 C 448.57 339.72 454.49 337.31 458.14 336.18 C 461.79 335.06 469.11 333.65 474.41 333.06 C 479.72 332.47 485.95 332.27 488.28 332.63 C 490.6 332.98 493.06 333.72 493.75 334.26 C 494.44 334.8 495 336.3 495 337.59 C 495 338.88 494.21 340.35 493.25 340.87 C 492.29 341.38 489.36 342.12 486.74 342.52 C 483.18 343.05 481.51 343.9 480.16 345.87 C 479.17 347.31 477.55 350.68 476.56 353.35 C 475.43 356.4 471.94 361.36 467.2 366.67 C 463.05 371.33 458.04 375.95 456.08 376.93 C 454.11 377.92 450.25 379.24 447.5 379.86 C 444.75 380.48 436.43 381.89 429 382.99 C 416.66 384.82 415.31 385.23 413.23 387.75 C 411.99 389.26 410.13 393.2 409.1 396.5 C 408.07 399.8 406.68 406.55 406.01 411.5 C 405.18 417.57 405.08 422.46 405.69 426.5 C 406.19 429.8 406.25 434.17 405.82 436.22 C 405.39 438.26 403.4 442.22 401.4 445.01 C 399.39 447.8 396.02 450.97 393.91 452.04 C 391.27 453.39 388.12 453.99 383.79 453.96 z M 388.01 438 C 388.49 438 389.55 437.05 390.37 435.89 C 391.18 434.72 391.62 433.18 391.35 432.46 C 391.07 431.74 390.17 430.9 389.35 430.58 C 388.53 430.27 386.99 430.47 385.93 431.04 C 384.87 431.61 384 432.7 384 433.46 C 384 434.23 384.71 435.56 385.57 436.43 C 386.44 437.29 387.54 438 388.01 438 z M 315.52 374 C 315.86 374 316.99 373.54 318.03 372.98 C 319.07 372.42 320.46 370.21 321.1 368.06 C 322.12 364.67 322.02 363.71 320.34 360.82 C 319.27 359 317.44 357.36 316.26 357.19 C 315.09 357.02 313.2 357.8 312.06 358.94 C 310.66 360.34 310 362.29 310 365.05 C 310 368.01 310.66 369.75 312.45 371.55 C 313.8 372.9 315.18 374 315.52 374 z M 453 371.35 C 454.38 371.05 456.56 369.64 457.86 368.22 C 459.87 366.02 460.13 364.96 459.61 361.17 C 459.27 358.71 458.49 356.09 457.88 355.35 C 457.26 354.61 455.95 354 454.96 354 C 453.97 354 452.44 354.28 451.54 354.62 C 450.65 354.96 449.27 356.52 448.46 358.07 C 447.66 359.63 447 362.93 447 365.4 C 447 368.64 447.49 370.18 448.75 370.89 C 449.71 371.44 451.62 371.64 453 371.35 z M 234.93 314 C 235.37 314 239.21 309.64 243.47 304.31 C 247.73 298.98 251.71 293.83 252.32 292.85 C 253.2 291.44 252.99 290.62 251.26 288.78 C 250.07 287.51 247.1 282.21 244.65 276.99 C 242.2 271.77 239.06 264.04 237.66 259.82 C 236.27 255.6 233.97 246.54 232.56 239.69 C 231.15 232.85 229.71 223.88 229.36 219.77 C 229.02 215.65 229.13 212.04 229.62 211.73 C 230.11 211.43 232.77 212.15 235.53 213.34 C 238.29 214.53 243.92 217.37 248.05 219.65 C 252.18 221.94 259.82 227.1 265.03 231.12 C 270.24 235.15 278.1 242 282.5 246.34 C 290.5 254.24 290.5 254.24 301.82 248.52 C 308.05 245.37 313.39 242.15 313.68 241.38 C 313.98 240.61 313.7 239.35 313.07 238.59 C 312.44 237.82 310.7 236.89 309.21 236.52 C 307.72 236.15 302 233 296.5 229.52 C 291 226.04 279.75 219.24 271.5 214.42 C 263.25 209.59 245.73 199.67 232.58 192.37 C 219.42 185.07 208.28 179.33 207.83 179.61 C 207.37 179.89 207 183.58 207 187.81 C 207.01 192.04 207.46 202.6 208.01 211.27 C 208.57 219.95 209.71 232.32 210.55 238.77 C 211.39 245.22 213.19 256.02 214.55 262.77 C 215.91 269.51 218.42 279.41 220.13 284.77 C 221.84 290.12 224.82 297.65 226.75 301.5 C 228.67 305.35 231.13 309.74 232.19 311.25 C 233.26 312.76 234.49 314 234.93 314 z M 502.79 309.8 C 501.78 310 497.87 307.03 492.98 302.36 C 488.51 298.09 480.28 289.47 474.68 283.21 C 469.08 276.94 463.91 270.7 463.19 269.35 C 462.46 267.99 462.01 266.55 462.19 266.14 C 462.36 265.73 470.15 258.38 479.5 249.81 C 488.85 241.23 499.88 231.39 504 227.93 C 508.12 224.47 514.65 219.32 518.5 216.47 C 522.35 213.63 526.97 210.54 528.77 209.62 C 531.84 208.03 532.08 208.03 532.69 209.63 C 533.05 210.57 532.56 217.1 531.59 224.15 C 530.63 231.19 528.57 242.48 527.01 249.23 C 525.45 255.98 522.31 266.68 520.04 273 C 517.77 279.32 513.34 290.12 510.19 296.99 C 506.59 304.86 503.85 309.6 502.79 309.8 z M 262.26 279.31 C 262.98 278.86 266.81 275.04 270.78 270.8 C 274.75 266.57 278 262.63 278 262.05 C 278 261.47 277.43 261 276.73 261 C 276.04 261 270.08 255.58 263.48 248.95 C 256.89 242.33 249.21 235.13 246.41 232.95 C 243.61 230.78 241.02 229 240.66 229 C 240.3 229 240 229.7 240 230.56 C 240 231.42 242.44 238.06 245.42 245.31 C 248.4 252.56 253.11 263.36 255.9 269.31 C 259.61 277.23 261.31 279.91 262.26 279.31 z" stroke-linecap="round" />
</g>
</svg>