<?xml version="1.0" encoding="UTF-8" standalone="no"?>
<!-- Created with Inkscape (http://www.inkscape.org/) -->

<svg
   version="1.1"
   id="svg1"
   width="512"
   height="512"
   viewBox="0 0 512 512"
   xmlns="http://www.w3.org/2000/svg"
   xmlns:svg="http://www.w3.org/2000/svg">
  <defs
     id="defs1" />
  <g
     id="g1">
    <path
       style="fill:#116417;stroke:#842b2b;stroke-opacity:1;fill-opacity:1"
       d="M 234.5,479.10286 212.5,467.23038 170.4854,444.36519 128.47081,421.5 84.265916,397.5 40.061023,373.5 40.030512,258.33179 40,143.16357 39.436093,141.69406 38.872186,140.22454 50.686093,133.72968 62.5,127.23482 84.201059,115.61741 105.90212,104 l 1.04894,0 1.04894,0 v 14.94086 14.94087 L 88,144.54946 68,155.2172 v 101.37455 101.37456 l 5.25,2.63904 5.25,2.63905 16,8.747 16,8.74701 34.5,18.75013 34.5,18.75014 11.5,6.26662 11.5,6.26661 20,10.75289 20,10.75288 6.83953,3.86116 6.83954,3.86116 h 0.51819 0.51819 l 21.64227,-11.63975 21.64228,-11.63976 1,-0.72589 1,-0.7259 L 331,420 l 28.5,-15.2687 1,-0.71259 1,-0.7126 10,-5.27841 10,-5.27841 10.5,-5.74561 10.5,-5.74562 16.5,-9.00683 16.5,-9.00683 5.25,-2.63905 5.25,-2.63904 v -100.941 -100.941 l -4.25,-2.40883 -4.25,-2.40882 -15.09492,-8.15757 -15.09492,-8.15756 -0.6554,-15.14211 -0.6554,-15.14212 0.57564,-0.57564 0.57564,-0.57564 7.65952,3.99199 7.65952,3.99199 11.01516,6.07848 11.01516,6.07849 8,4.29601 8,4.29602 7.25,3.96589 7.25,3.96588 -0.0346,116.65962 -0.0346,116.65961 -19.21536,10.39814 -19.21537,10.39814 -17.5,9.50245 -17.5,9.50245 -15,8.20484 -15,8.20484 -11,5.79315 -11,5.79315 -9.5,5.21794 -9.5,5.21793 -8,4.27438 -8,4.27438 -10.5,5.70967 -10.5,5.70968 -12.5,6.58188 -12.5,6.58188 -5.5,3.04943 -5.5,3.04944 -0.5,0.006 -0.5,0.006 z m 14,-96.10994 -7,-0.78668 -5.59316,-2.11629 -5.59316,-2.11629 -7.65684,-9.10908 L 215,359.75549 v -1.5034 -1.5034 l 2.4846,-14.62435 2.48461,-14.62434 3.04762,-18.71451 3.04762,-18.71452 -4.50471,-17.28548 -4.5047,-17.28549 -0.6168,-2.14541 -0.6168,-2.1454 -10.66072,-4.51952 -10.66072,-4.51952 -14.12391,-5.72426 -14.12391,-5.72427 -26.87609,9.81168 -26.87609,9.81167 -6.5,2.17687 -6.5,2.17688 -0.332033,-0.84546 -0.332032,-0.84546 9.749555,-13.7539 9.74956,-13.7539 7.49417,-10.38361 7.49417,-10.38362 -2.18132,-7.11638 -2.18131,-7.11639 -2.94592,-11 -2.94591,-11 -1.53446,-8.88099 -1.53447,-8.88099 0.002,-23.11901 0.002,-23.11901 0.98773,-13.5 0.98774,-13.5 1.04615,-9 1.04615,-9 0.55158,-3.75 0.55159,-3.75 0.85756,0 0.85756,0 11.37532,9.75 11.37532,9.75 11.92922,10.489292 11.92922,10.489292 13,12.164106 13,12.16411 10.5,11.56518 10.5,11.56518 36.5,0.0162 36.5,0.0162 8.5,-9.57273 8.5,-9.57272 11.51249,-11.16209 11.51249,-11.16209 15.92854,-14 15.92855,-14 8.05896,-7.00844 8.05897,-7.008439 3.37557,-2.782659 3.37557,-2.782659 0.40867,0.40867 0.40867,0.408671 0.93691,5.882428 0.93691,5.882428 1.50416,16 1.50415,16 0.66318,24 0.66317,24 -1.16241,8.64998 -1.16241,8.64998 -3.42507,13.85002 L 386.10201,188.5 383.551,195.92515 381,203.3503 v 1.15006 1.15006 l 4.57388,5.89025 4.57388,5.89026 7.39402,10.53453 7.39401,10.53454 5.61782,7.83096 5.61781,7.83095 -0.52093,0.52093 -0.52092,0.52093 -5.31479,-1.73039 -5.31478,-1.7304 -17.5,-6.42703 -17.5,-6.42704 -10.68479,-4.07219 -10.68479,-4.07219 -18.31521,7.75751 -18.31521,7.75751 -6,2.47759 -6,2.47759 -0.97771,0.92035 -0.97771,0.92034 -4.57649,18.57409 -4.57649,18.57409 2.82619,17.6482 2.82618,17.6482 2.89567,16.4696 2.89568,16.4696 -0.8222,1.5304 -0.8222,1.5304 -6.65255,8 -6.65254,8 -3.19292,1.69667 -3.19291,1.69667 -5,0.98995 -5,0.98994 -6.5,0.45319 -6.5,0.45318 z m 21.66921,-16.27152 10.85659,-7.2214 -0.57798,-3.35537 -0.57798,-3.35538 -1.9751,-6.39462 L 275.91964,340 H 257.03737 238.1551 l -1.02815,3.25 -1.02816,3.25 -1.60544,6.36062 -1.60544,6.36063 0.30605,0.23719 0.30604,0.2372 11.44435,7.68459 11.44435,7.68459 1.46196,-0.56101 1.46196,-0.56101 z m 100.1697,-202.22683 5.5773,-13.00544 1.16818,-5.44702 1.16818,-5.44702 -0.54852,-18.54755 L 377.15553,103.5 375.91741,96.674423 374.6793,89.848847 361.77435,102.67442 348.8694,115.5 335.1847,130.86498 321.5,146.22996 l -0.73156,1.26329 -0.73157,1.26328 18.14944,15.37174 18.14944,15.37173 2.58213,2.17519 2.58212,2.17519 1.63081,-3.17519 1.63081,-3.17519 z M 159.62318,177.72709 165.74635,172.5 179.87318,160.58775 194,148.67549 v -0.70069 l 0,-0.70069 -18.87957,-20.88706 -18.87957,-20.88705 -8.09041,-7.946691 -8.0904,-7.946692 -0.63955,0.63955 -0.63955,0.639549 -0.84544,7.307142 -0.84545,7.307142 -0.66713,16.5 -0.66713,16.5 1.10229,5.82651 1.10229,5.8265 3.64822,9.1735 3.64821,9.17349 3.41715,7.25 3.41715,7.25 0.70445,-0.0229 0.70444,-0.0229 z m -4.76036,133.9466 -47.63719,-39.17369 -3.23838,-2.7911 -3.23839,-2.7911 0.44925,-0.44925 0.44925,-0.44925 27.70471,-10.47233 27.70471,-10.47234 1.43748,-0.28731 1.43749,-0.28732 11.78412,8.93708 11.78413,8.93708 14.62579,11.31079 14.62579,11.31079 1.10655,1.33331 1.10655,1.33331 -3.51822,22.41882 -3.51821,22.41882 -1.76425,8.93337 -1.76424,8.93338 -0.94988,0.24032 -0.94988,0.24031 z M 309.669,350.25 l -0.44903,-0.75 -5.26283,-31.21594 -5.26284,-31.21594 2.40285,-2.03841 2.40285,-2.03841 21.32682,-16.24565 21.32683,-16.24565 4.23603,-3.1239 4.23602,-3.12391 18.43715,6.89179 18.43715,6.89178 10.75,4.19477 10.75,4.19476 v 0.69859 0.69859 L 392.25,284.85182 371.5,301.88118 341.57504,326.44059 311.65008,351 h -0.76602 -0.76603 z M 178.6806,81.914433 169,72.828866 v -0.75796 -0.75796 l 12.75,-6.832424 12.75,-6.832423 4,-2.185515 4,-2.185514 26.87603,-14.241628 26.87603,-14.241628 2.62397,1.175802 2.62397,1.175802 42,22.096439 42,22.096439 0.39507,0.309251 0.39506,0.30925 -6.89506,6.357604 -6.89507,6.357604 -3.7298,3.249852 -3.7298,3.249853 L 306.7702,81.724405 288.5,72.277101 273.26845,64.13855 258.03691,56 l -1.09016,0 h -1.09016 L 238.17829,65.352998 220.5,74.705996 204.8891,82.852998 189.2782,91 h -0.45849 -0.4585 z"
       id="path265492" />
  </g>
</svg>
