 <svg  version="1.0" xmlns="http://www.w3.org/2000/svg"  width="300.000000pt" height="308.000000pt" viewBox="0 0 300.000000 308.000000"  preserveAspectRatio="xMidYMid meet">  <g transform="translate(0.000000,308.000000) scale(0.100000,-0.100000)" fill="#529cdd" stroke="none"> <path d="M1536 2924 c6 -50 -11 -58 -32 -16 -16 33 -28 41 -19 14 5 -19 2 -25 -14 -29 -31 -8 -25 -25 7 -19 33 7 62 -7 41 -20 -7 -4 -27 -7 -44 -6 -24 1 -26 -1 -10 -7 19 -8 19 -8 0 -19 -11 -6 -16 -14 -11 -19 5 -4 11 -2 13 5 7 19 23 14 17 -5 -4 -10 3 -3 15 15 11 17 25 32 31 32 16 0 12 -37 -5 -44 -8 -3 -15 -10 -15 -17 0 -6 7 -8 16 -5 12 4 15 2 10 -9 -3 -8 -1 -15 4 -15 6 0 10 8 10 18 0 13 2 14 9 3 5 -8 11 -9 15 -3 3 5 -1 15 -9 22 -17 14 -20 50 -5 50 6 0 17 -15 25 -32 12 -29 21 -31 16 -4 -1 5 4 4 13 -3 8 -7 17 -8 20 -3 3 6 -2 13 -11 16 -15 6 -15 8 -3 16 11 7 7 10 -17 10 -17 0 -34 4 -37 9 -8 12 23 23 45 16 23 -8 25 10 3 19 -9 4 -14 13 -10 21 9 25 -10 16 -22 -10 -14 -31 -33 -33 -31 -2 4 39 -1 67 -10 67 -5 0 -7 -21 -5 -46z"/> <path d="M1510 2940 c0 -5 5 -10 10 -10 6 0 10 5 10 10 0 6 -4 10 -10 10 -5 0 -10 -4 -10 -10z"/> <path d="M1560 2940 c0 -5 5 -10 10 -10 6 0 10 5 10 10 0 6 -4 10 -10 10 -5 0 -10 -4 -10 -10z"/> <path d="M1809 2923 c-8 -2 -23 -17 -33 -33 -17 -29 -17 -31 4 -60 24 -34 54 -38 88 -14 31 22 29 67 -4 93 -15 12 -29 20 -33 20 -3 -1 -13 -3 -22 -6z m49 -35 c32 -32 -18 -87 -53 -58 -28 23 -12 70 25 70 9 0 21 -5 28 -12z"/> <path d="M1450 2910 c0 -5 7 -10 16 -10 8 0 12 5 9 10 -3 6 -10 10 -16 10 -5 0 -9 -4 -9 -10z"/> <path d="M1615 2910 c-3 -5 1 -10 9 -10 9 0 16 5 16 10 0 6 -4 10 -9 10 -6 0 -13 -4 -16 -10z"/> <path d="M2140 2775 c0 -9 -6 -12 -17 -8 -17 6 -17 5 0 -14 9 -11 17 -27 17 -37 0 -26 -40 -1 -41 27 0 20 -1 21 -8 3 -5 -14 -10 -16 -15 -8 -4 7 -12 10 -17 6 -6 -3 -3 -12 8 -20 11 -8 13 -13 6 -14 -7 0 -13 -4 -13 -9 0 -5 9 -7 20 -4 11 3 28 2 37 -2 17 -6 17 -7 0 -16 -9 -6 -26 -7 -37 -4 -11 4 -20 2 -20 -4 0 -6 5 -11 12 -11 6 0 3 -7 -8 -16 -19 -15 -19 -15 0 -9 11 3 23 0 28 -7 6 -10 8 -9 8 4 0 10 9 22 20 28 17 9 20 8 20 -10 0 -11 -7 -23 -15 -26 -8 -4 -15 -11 -15 -16 0 -6 7 -8 15 -4 9 3 15 0 15 -9 0 -8 5 -15 11 -15 6 0 8 9 3 22 -6 20 -5 21 10 9 18 -15 22 -1 4 17 -27 27 -19 51 27 78 25 14 45 31 45 36 0 6 -6 5 -15 -2 -12 -10 -15 -9 -16 6 0 15 -3 14 -12 -6 -19 -41 -45 -53 -42 -20 1 11 10 27 21 36 18 15 18 15 -3 9 -18 -5 -22 -3 -17 9 3 9 1 16 -5 16 -6 0 -11 -7 -11 -15z"/> <path d="M1260 2765 c-15 -18 -5 -64 16 -72 9 -3 25 3 37 15 19 19 19 24 7 47 -15 28 -41 33 -60 10z m45 -25 c3 -6 -1 -13 -10 -16 -19 -8 -30 0 -20 15 8 14 22 14 30 1z"/> <path d="M1032 2688 c3 -18 9 -42 13 -53 5 -12 -3 -6 -19 13 -15 17 -32 32 -37 32 -16 0 -9 -21 15 -43 25 -23 41 -107 21 -107 -16 0 -66 43 -70 60 -8 37 -18 60 -26 60 -15 0 -21 -22 -10 -33 6 -6 11 -17 11 -25 0 -9 -9 -7 -31 9 -22 15 -34 18 -41 11 -8 -8 0 -16 27 -29 34 -16 35 -18 14 -23 -12 -3 -24 -11 -27 -18 -3 -10 7 -11 41 -7 32 5 54 2 77 -10 18 -9 30 -18 28 -20 -22 -20 -77 -41 -93 -34 -31 12 -57 10 -53 -3 3 -7 15 -15 28 -18 21 -5 21 -7 -14 -25 -35 -19 -47 -35 -26 -35 6 0 22 7 36 16 29 20 40 14 25 -14 -10 -18 -6 -32 9 -32 4 0 13 20 20 45 7 25 18 45 25 45 7 0 18 7 25 15 21 25 30 17 30 -27 0 -32 -6 -49 -27 -70 -36 -38 -20 -49 18 -12 26 24 29 25 20 7 -17 -33 -14 -73 5 -73 13 0 15 7 11 35 -6 37 3 45 23 20 13 -16 30 -20 30 -7 0 4 -13 21 -29 38 -21 22 -29 41 -29 67 0 43 2 44 45 17 22 -13 35 -31 43 -60 13 -47 36 -56 27 -10 -7 34 -1 37 32 14 16 -11 26 -13 33 -6 7 7 -1 15 -27 26 -41 18 -42 24 -5 29 25 4 41 27 18 27 -7 0 -28 -4 -46 -9 -27 -8 -39 -6 -67 11 -19 11 -35 22 -35 24 0 2 14 11 31 19 22 12 44 14 80 10 55 -7 71 11 19 22 l-31 6 37 22 c23 14 32 25 25 29 -6 4 -21 0 -33 -8 -32 -23 -38 -20 -31 15 5 24 3 31 -8 27 -7 -2 -17 -23 -22 -45 -6 -34 -14 -44 -40 -54 -18 -7 -34 -14 -38 -16 -3 -2 -5 15 -4 37 1 29 8 47 28 68 15 15 27 31 27 35 0 14 -28 7 -34 -8 -11 -31 -27 -15 -20 20 5 29 3 35 -11 35 -14 0 -16 -7 -13 -32z m18 -183 c0 -8 -4 -15 -10 -15 -5 0 -7 7 -4 15 4 8 8 15 10 15 2 0 4 -7 4 -15z"/> <path d="M2215 2700 c4 -6 11 -8 16 -5 14 9 11 15 -7 15 -8 0 -12 -5 -9 -10z"/> <path d="M1617 2658 c-7 -25 8 -58 26 -58 29 0 50 26 43 53 -9 36 -60 39 -69 5z m53 -19 c0 -5 -10 -9 -21 -9 -18 0 -19 2 -9 15 12 15 30 12 30 -6z"/> <path d="M2173 2665 c7 -5 17 -19 21 -30 5 -12 10 -15 13 -8 2 7 11 9 19 6 8 -3 14 0 14 5 0 6 -8 13 -17 15 -17 4 -17 5 0 6 36 2 15 18 -23 17 -30 0 -37 -3 -27 -11z"/> <path d="M654 2616 c-19 -15 -19 -15 2 -36 l20 -21 19 20 c14 17 15 23 5 36 -15 19 -21 19 -46 1z"/> <path d="M1744 2535 c-26 -63 -44 -149 -49 -230 -4 -75 -7 -83 -48 -140 -85 -118 -146 -238 -180 -353 l-23 -81 -160 -97 c-364 -219 -431 -278 -561 -487 -46 -74 -51 -80 -115 -107 -386 -162 -449 -637 -112 -840 111 -67 131 -69 682 -69 332 -1 492 2 492 9 0 27 -31 80 -58 100 -20 15 -33 35 -37 58 -10 52 -57 150 -94 196 -17 21 -31 40 -31 41 0 2 26 18 58 35 31 18 76 43 98 57 l42 24 36 -103 c20 -57 61 -173 90 -258 l53 -155 199 -3 c109 -1 204 0 211 3 11 4 10 12 -2 42 -22 52 -52 81 -97 95 l-38 11 0 364 0 365 45 53 c68 79 142 209 171 299 30 93 38 212 22 339 -12 91 -8 100 72 137 42 20 52 30 67 69 32 81 18 177 -43 305 -20 41 -22 55 -14 90 22 97 6 266 -26 266 -16 0 -127 -106 -160 -152 -19 -27 -20 -27 -146 -29 l-128 -2 -39 55 c-42 57 -92 101 -136 118 -24 9 -27 7 -41 -25z m650 -11 c3 -8 2 -12 -4 -9 -6 3 -10 10 -10 16 0 14 7 11 14 -7z m-547 -67 c28 -29 58 -67 66 -83 l16 -31 155 2 156 2 43 59 c24 33 56 70 70 83 l25 23 8 -47 c3 -26 1 -85 -5 -130 -11 -79 -10 -86 12 -137 13 -29 32 -77 41 -106 10 -29 22 -50 27 -46 5 3 9 -5 9 -18 0 -23 0 -23 -23 4 -60 74 -177 57 -214 -30 -13 -32 -14 -48 -4 -115 7 -43 15 -85 18 -93 4 -10 -3 -14 -23 -14 -26 0 -33 9 -76 93 -78 152 -128 197 -220 197 -101 0 -209 -70 -257 -164 -32 -65 -25 -76 47 -76 67 0 172 -19 172 -31 0 -32 -53 -287 -65 -309 -8 -15 -33 -44 -55 -62 -22 -19 -40 -39 -40 -44 1 -5 19 -22 41 -37 76 -52 79 -68 79 -430 0 -182 4 -326 10 -336 5 -10 10 -68 11 -129 2 -161 5 -171 61 -193 41 -16 48 -16 59 -3 12 15 11 24 -27 244 -16 95 -16 94 16 128 29 30 42 37 65 33 6 -1 2 6 -8 16 -18 17 -20 17 -56 -25 -20 -23 -40 -42 -44 -42 -4 0 -7 17 -7 38 0 20 -5 44 -10 52 -8 12 -10 11 -10 -6 0 -19 50 -328 66 -401 l6 -33 -41 18 -41 17 -2 190 c0 105 -2 227 -2 272 -1 78 0 82 25 97 15 9 49 36 77 61 27 25 52 45 55 45 3 0 7 -62 8 -137 0 -76 3 -229 6 -340 l4 -202 44 -21 c64 -31 95 -58 95 -83 0 -22 -1 -22 -167 -21 -93 1 -175 2 -184 3 -12 1 -27 32 -53 114 -20 61 -41 121 -46 132 -5 11 -18 47 -29 80 -10 33 -23 68 -26 78 -5 11 -2 17 6 17 7 0 23 10 36 22 l23 22 33 -32 c52 -51 64 -37 13 16 l-46 47 -28 -33 -27 -32 -69 197 c-87 249 -93 263 -111 263 -24 0 -18 -29 41 -196 l56 -158 -23 -16 c-12 -8 -48 -29 -78 -46 l-56 -31 0 71 c0 61 -5 82 -37 148 -89 187 -231 261 -374 194 -52 -24 -124 -81 -124 -97 0 -23 33 -19 67 9 149 117 283 83 376 -96 45 -85 60 -142 52 -196 -9 -60 -19 -73 -38 -54 -31 31 -114 77 -177 98 -48 16 -106 24 -220 31 -226 13 -279 30 -315 99 -40 77 7 222 126 390 100 141 171 200 437 360 174 105 241 150 242 164 0 10 14 59 30 110 34 100 96 216 171 316 47 62 49 67 49 130 0 101 27 230 48 230 5 0 32 -24 59 -53z m453 -427 c-6 -11 -18 -20 -27 -20 -14 0 -14 2 2 20 10 11 22 20 27 20 5 0 4 -9 -2 -20z m-296 4 c9 -3 16 -10 16 -15 0 -15 -37 -10 -50 6 -10 12 -10 15 3 15 8 0 22 -3 31 -6z m403 -15 c33 -16 43 -26 43 -44 0 -43 -23 -76 -69 -100 -26 -13 -56 -33 -69 -45 -13 -12 -25 -20 -28 -17 -3 2 -7 43 -11 89 -6 82 -5 85 16 91 13 3 25 15 28 26 7 27 35 27 90 0z m-460 -3 c12 -19 49 -37 66 -30 20 7 48 -34 108 -161 28 -57 58 -109 67 -115 14 -8 11 -9 -14 -10 -20 0 -49 14 -90 44 -111 82 -216 123 -331 128 -29 2 -53 5 -53 7 0 7 54 76 75 94 53 48 154 73 172 43z m-26 -211 c1 -17 -18 -17 -25 0 -4 11 -1 15 10 13 8 -2 15 -7 15 -13z m381 -31 c0 -8 1 -18 2 -24 1 -5 -3 -10 -9 -11 -5 0 -19 -8 -30 -18 -11 -9 -29 -23 -39 -31 -18 -13 -19 -13 -14 2 4 9 -1 23 -13 34 -27 24 -24 31 14 32 19 0 38 8 47 20 16 21 39 19 42 -4z m-229 -77 c77 -59 151 -59 197 0 l19 24 7 -35 c3 -20 4 -86 2 -148 -4 -98 -9 -124 -37 -195 -48 -123 -119 -224 -242 -345 -60 -60 -112 -108 -116 -108 -5 0 -8 78 -8 173 0 193 -8 228 -61 287 l-34 38 29 31 c16 17 37 53 46 80 13 39 55 255 55 283 0 10 85 -41 143 -85z m-1385 -672 c-10 -23 -13 -24 -21 -9 -6 11 -5 19 4 25 24 15 29 10 17 -16z m-43 -50 c-17 -48 -19 -148 -4 -178 24 -46 74 -88 124 -103 27 -8 127 -19 220 -24 198 -11 196 -11 170 0 -31 14 7 13 42 -1 28 -11 28 -11 6 -22 -13 -5 -23 -15 -24 -21 0 -6 -3 -3 -7 6 -5 12 -11 15 -22 8 -12 -7 -7 -19 28 -69 46 -66 48 -71 28 -71 -25 0 -106 -39 -106 -51 0 -7 21 -36 46 -66 26 -30 45 -55 43 -57 -2 -2 -30 -16 -61 -30 -32 -15 -58 -30 -58 -33 0 -15 67 -92 79 -93 8 0 11 -3 8 -7 -4 -3 -17 -1 -30 5 -14 8 -107 13 -262 14 l-240 3 -67 32 c-93 44 -151 100 -196 191 -35 73 -37 81 -37 176 0 93 3 106 33 170 41 87 131 177 227 228 38 20 71 36 72 34 1 -1 -4 -20 -12 -41z m1425 10 c0 -8 -7 -15 -16 -15 -14 0 -14 3 -4 15 7 8 14 15 16 15 2 0 4 -7 4 -15z m-158 -109 c7 4 2 -6 -12 -22 -14 -16 -26 -31 -27 -33 -1 -2 -2 13 -1 32 1 29 4 34 14 26 7 -6 19 -7 26 -3z m-249 -196 c6 -22 0 -25 -22 -11 -9 6 -10 11 -2 15 6 4 8 12 5 18 -4 6 -2 8 3 5 6 -4 13 -16 16 -27z m-357 -89 c86 -55 150 -126 189 -206 56 -116 59 -108 -42 -145 -102 -37 -194 -60 -241 -60 -24 0 -40 8 -62 33 -16 17 -30 34 -30 37 0 3 20 13 44 23 85 35 85 36 33 105 l-47 61 46 20 c26 12 50 21 55 21 23 0 17 27 -20 80 -41 58 -41 67 0 69 9 1 42 -16 75 -38z m182 6 c23 8 14 -1 -32 -32 -29 -20 -42 -23 -50 -15 -8 8 -7 11 4 8 9 -2 21 10 30 28 11 23 17 28 23 18 4 -7 15 -10 25 -7z m152 -428 c0 -4 -6 -9 -12 -12 -21 -7 -336 -2 -344 6 -4 4 1 8 12 8 42 3 63 9 154 44 52 20 97 41 98 46 4 9 92 -80 92 -92z"/> <path d="M1790 2351 c0 -99 10 -110 68 -75 23 14 42 27 42 30 0 14 -35 72 -58 97 -43 46 -52 37 -52 -52z m80 -30 c0 -16 -28 -40 -47 -41 -9 0 -13 19 -13 63 l1 62 29 -35 c17 -19 30 -41 30 -49z"/> <path d="M2332 2400 c-40 -63 -40 -110 1 -118 12 -2 17 9 22 51 4 29 5 64 3 78 -4 23 -4 23 -26 -11z m3 -69 c3 -5 1 -12 -5 -16 -5 -3 -10 1 -10 9 0 18 6 21 15 7z"/> <path d="M1730 1810 c0 -23 55 -112 89 -144 38 -37 41 -25 4 15 -16 16 -43 55 -60 86 -18 32 -33 51 -33 43z"/> <path d="M1523 787 c-24 -17 -41 -32 -39 -35 6 -5 86 49 86 59 0 11 2 13 -47 -24z"/> <path d="M1944 1615 c10 -8 53 -28 94 -46 86 -35 160 -41 210 -15 43 22 41 30 -4 11 -67 -28 -140 -16 -258 41 -56 27 -70 30 -42 9z"/> <path d="M379 423 c38 -56 116 -95 236 -119 76 -15 420 -20 467 -7 15 5 -77 8 -205 8 -248 0 -300 7 -392 52 -27 13 -68 41 -89 61 -39 37 -39 37 -17 5z"/> <path d="M1262 325 c3 -3 43 -7 89 -8 46 -2 94 -9 107 -16 13 -7 31 -11 40 -8 36 8 -95 37 -166 37 -42 0 -73 -2 -70 -5z"/> <path d="M670 2486 c-17 -17 -11 -36 13 -45 28 -11 41 1 33 32 -6 25 -28 31 -46 13z"/> <path d="M701 2336 c-16 -17 -18 -25 -9 -41 7 -11 18 -25 27 -31 32 -24 86 45 57 72 -24 22 -54 22 -75 0z m59 -25 c0 -22 -21 -33 -40 -21 -18 11 -4 40 20 40 13 0 20 -7 20 -19z"/> <path d="M1441 2332 c-1 -7 -6 -10 -11 -7 -6 3 -13 -1 -16 -9 -3 -9 -9 -14 -13 -11 -4 2 -8 -2 -8 -10 0 -7 8 -13 17 -12 12 1 15 7 12 21 -3 13 -1 17 6 12 7 -4 12 -16 12 -27 0 -18 -9 -23 -35 -20 -6 0 -11 -8 -12 -19 -1 -11 2 -18 7 -15 5 3 11 1 15 -5 4 -6 11 -8 16 -5 5 4 9 -1 9 -10 0 -13 4 -12 22 5 12 11 29 20 37 21 11 0 12 2 3 6 -6 2 -9 10 -5 16 4 7 0 8 -11 4 -10 -4 -19 -7 -22 -7 -2 0 0 -8 3 -17 6 -15 4 -16 -8 -6 -12 10 -18 10 -27 1 -9 -9 -12 -8 -12 5 0 10 8 17 19 17 10 0 21 7 25 15 3 8 12 12 19 9 8 -3 17 2 20 10 5 11 0 16 -13 16 -11 0 -20 5 -20 11 0 5 -4 8 -9 5 -5 -4 -12 0 -14 6 -4 10 -6 10 -6 0z m29 -31 c0 -6 -4 -13 -10 -16 -5 -3 -10 1 -10 9 0 9 5 16 10 16 6 0 10 -4 10 -9z"/> <path d="M2685 2240 c-10 -30 6 -49 33 -39 24 9 29 28 10 47 -18 18 -36 15 -43 -8z"/> <path d="M470 2189 c0 -18 -2 -19 -15 -9 -8 7 -15 8 -15 2 0 -5 7 -15 15 -22 18 -15 20 -53 3 -48 -7 3 -18 14 -24 26 -14 29 -29 42 -21 19 6 -15 3 -17 -16 -12 -21 6 -21 6 -3 -9 18 -15 18 -16 2 -16 -9 0 -14 -5 -11 -10 4 -7 13 -6 26 1 16 8 25 7 39 -6 20 -18 22 -62 3 -70 -7 -2 -13 -10 -13 -16 0 -8 5 -7 16 2 15 12 16 11 10 -9 -8 -25 1 -28 27 -8 15 12 15 15 2 26 -19 16 -19 54 0 70 8 7 26 10 40 8 14 -3 25 -1 25 3 0 5 -6 9 -12 9 -8 0 -5 7 6 15 11 8 16 18 11 22 -4 5 -10 2 -12 -4 -3 -7 -9 -13 -14 -13 -4 0 -6 8 -2 18 8 22 -7 9 -21 -20 -6 -12 -17 -23 -23 -26 -19 -6 -16 28 5 51 16 19 16 20 0 14 -12 -4 -15 -2 -12 7 3 8 1 17 -5 21 -7 3 -11 -3 -11 -16z"/> <path d="M1115 2120 c-12 -20 6 -51 28 -48 31 4 31 52 0 56 -11 2 -24 -2 -28 -8z"/> <path d="M390 2079 c0 -4 7 -10 16 -13 9 -4 14 -13 10 -21 -3 -8 -1 -15 4 -15 6 0 10 7 10 16 0 9 7 22 16 28 13 10 10 12 -20 12 -20 0 -36 -3 -36 -7z"/> <path d="M505 2074 c8 -6 14 -17 13 -24 -2 -7 3 -15 11 -18 9 -3 11 0 6 8 -5 9 -2 10 14 5 12 -4 21 -2 21 4 0 6 -8 11 -17 12 -11 0 -13 3 -5 6 23 9 12 19 -24 19 -30 0 -33 -2 -19 -12z"/> <path d="M385 2050 c-3 -5 -2 -10 4 -10 5 0 13 5 16 10 3 6 2 10 -4 10 -5 0 -13 -4 -16 -10z"/> <path d="M1050 1979 c0 -18 -2 -19 -15 -9 -8 7 -15 8 -15 2 0 -5 7 -15 15 -22 18 -15 20 -53 3 -48 -7 3 -19 17 -26 31 -7 15 -18 27 -23 27 -6 0 -8 -4 -5 -9 8 -13 -4 -42 -15 -35 -5 3 -9 0 -9 -6 0 -5 13 -9 28 -8 15 1 34 -2 41 -7 24 -14 -16 -36 -45 -25 -14 6 -26 6 -29 0 -4 -6 2 -10 12 -10 17 -1 17 -2 -1 -15 -11 -8 -17 -18 -13 -21 4 -4 14 -1 24 7 15 12 16 12 10 -3 -3 -10 -2 -18 3 -18 5 0 12 11 16 24 7 30 44 43 44 16 0 -10 -7 -23 -15 -30 -8 -7 -15 -17 -15 -22 0 -6 7 -4 16 3 15 12 16 11 10 -9 -5 -13 -3 -22 3 -22 6 0 11 10 11 23 0 17 2 19 10 7 5 -8 12 -11 16 -7 4 3 1 14 -7 23 -15 19 -23 54 -11 54 14 0 32 -23 32 -42 0 -10 7 -18 16 -18 14 0 14 3 4 15 -8 9 -9 15 -2 15 6 0 14 -4 17 -10 8 -12 25 -13 25 -1 0 5 -10 12 -22 16 -20 6 -20 8 -5 12 9 2 17 9 17 14 0 11 -11 11 -29 0 -9 -6 -22 -6 -34 0 -18 10 -18 11 0 24 12 9 23 10 35 4 22 -12 28 -11 28 1 0 6 -8 10 -17 11 -14 0 -13 3 5 11 12 6 22 15 22 20 0 12 -14 10 -29 -4 -11 -11 -13 -10 -7 5 4 13 2 17 -6 15 -7 -3 -15 -13 -17 -24 -3 -18 -18 -34 -33 -34 -14 0 -8 37 7 50 8 7 15 17 15 22 0 6 -7 4 -16 -3 -15 -12 -16 -11 -10 9 5 13 3 22 -3 22 -6 0 -11 -10 -11 -21z"/> <path d="M955 1940 c3 -5 11 -10 16 -10 6 0 7 5 4 10 -3 6 -11 10 -16 10 -6 0 -7 -4 -4 -10z"/> <path d="M2685 1867 c-11 -9 -14 -18 -8 -32 11 -26 32 -30 48 -8 23 32 -8 63 -40 40z"/> <path d="M734 1805 c-8 -13 -13 -29 -9 -35 11 -18 49 -29 63 -18 19 16 14 56 -7 68 -27 14 -28 13 -47 -15z m41 -14 c7 -12 -12 -24 -25 -16 -11 7 -4 25 10 25 5 0 11 -4 15 -9z"/> <path d="M2492 1784 c-12 -8 -22 -25 -22 -38 0 -25 28 -56 51 -56 50 1 69 78 24 98 -32 15 -26 15 -53 -4z m55 -30 c8 -21 -19 -46 -40 -38 -9 3 -17 17 -17 30 0 19 5 24 25 24 14 0 28 -7 32 -16z"/> <path d="M529 1778 c-1 -7 -1 -26 0 -43 l2 -30 -21 24 c-15 17 -24 21 -32 13 -7 -7 -1 -19 21 -41 24 -24 31 -39 31 -70 0 -22 5 -43 10 -46 6 -3 10 -10 10 -16 0 -5 -4 -9 -10 -9 -5 0 -10 6 -10 14 0 8 -19 26 -42 40 -24 14 -39 26 -33 26 5 0 4 5 -3 12 -7 7 -12 20 -12 29 0 18 -17 35 -26 26 -2 -2 0 -16 5 -31 12 -31 5 -33 -29 -6 -28 22 -40 25 -40 10 0 -6 13 -18 30 -29 31 -18 30 -31 -2 -31 -10 0 -18 -7 -18 -16 0 -12 5 -14 18 -9 40 18 72 17 104 -3 l31 -20 -34 -21 c-19 -12 -41 -18 -49 -15 -37 16 -70 16 -70 1 0 -9 11 -17 28 -20 l27 -4 -32 -14 c-18 -7 -33 -19 -33 -26 0 -17 20 -16 44 2 27 21 39 19 26 -4 -13 -25 -13 -41 0 -41 5 0 15 18 21 40 8 27 23 47 44 60 18 11 35 20 39 20 3 0 6 -17 6 -38 0 -29 -7 -45 -30 -67 -16 -16 -30 -32 -30 -37 0 -15 22 -8 42 15 l19 22 -4 -42 c-4 -31 -2 -43 8 -43 18 0 23 20 14 54 l-8 29 23 -22 c13 -12 26 -18 30 -13 3 5 -6 20 -19 32 -19 18 -25 34 -25 67 l0 43 35 -18 c27 -13 36 -25 42 -56 5 -22 14 -41 22 -44 10 -3 11 3 6 27 -7 33 4 41 25 16 14 -17 36 -20 45 -5 3 5 -11 17 -32 26 l-38 17 29 6 c40 8 49 34 10 28 -16 -3 -36 -8 -45 -12 -9 -3 -32 4 -53 16 l-37 22 30 18 c18 11 42 17 58 14 16 -2 37 -5 47 -7 10 -2 21 3 23 10 3 7 -5 12 -21 12 -37 0 -40 16 -6 30 17 7 30 19 30 26 0 19 -7 18 -42 -7 l-30 -22 7 33 c10 45 -17 36 -28 -11 -6 -23 -20 -41 -43 -56 l-34 -22 0 43 c0 32 6 48 25 66 14 13 25 29 25 37 0 19 -9 16 -32 -9 l-19 -23 5 27 c7 29 -1 58 -15 58 -5 0 -9 -6 -10 -12z"/> <path d="M2720 1681 c0 -15 -4 -19 -17 -14 -17 6 -17 5 0 -14 20 -23 23 -57 5 -51 -7 3 -19 17 -26 32 -15 30 -18 31 -24 1 -1 -11 -10 -23 -18 -28 -9 -4 -5 -6 12 -4 16 3 36 -1 45 -8 15 -11 15 -13 -6 -24 -16 -9 -26 -9 -36 -1 -9 7 -15 8 -20 0 -3 -5 -1 -10 4 -10 6 0 11 -4 11 -10 0 -5 -7 -10 -16 -10 -8 0 -12 -5 -8 -11 4 -8 9 -8 17 0 16 16 27 13 20 -6 -4 -11 -3 -14 5 -9 7 4 12 14 12 21 0 8 9 19 20 25 17 9 20 8 20 -8 0 -11 -7 -25 -15 -32 -8 -7 -15 -17 -15 -22 0 -6 7 -5 15 2 13 10 15 9 15 -9 0 -12 4 -20 10 -16 5 3 6 13 3 23 -6 15 -5 15 10 3 19 -15 23 -1 5 17 -6 6 -12 20 -13 30 -2 29 32 15 40 -16 l7 -27 10 28 c5 15 14 27 19 27 5 0 9 5 9 10 0 7 -6 7 -20 0 -14 -8 -26 -8 -41 0 -20 11 -20 12 -3 25 12 9 26 10 41 4 14 -5 23 -5 23 1 0 6 -6 10 -12 10 -8 1 -6 6 5 14 12 9 14 16 8 21 -6 3 -11 1 -11 -4 0 -6 -4 -11 -10 -11 -5 0 -10 8 -10 18 0 11 -7 6 -20 -15 -11 -18 -24 -33 -28 -33 -12 0 -8 38 6 52 18 18 15 33 -3 18 -13 -11 -14 -10 -10 3 4 8 2 18 -4 22 -7 3 -11 -2 -11 -14z"/> <path d="M2625 1640 c-3 -5 1 -10 9 -10 9 0 16 5 16 10 0 6 -4 10 -9 10 -6 0 -13 -4 -16 -10z"/> <path d="M183 1571 c-9 -14 -8 -24 0 -41 16 -32 54 -33 74 -3 14 21 14 25 -2 43 -23 25 -57 26 -72 1z m57 -27 c0 -8 -9 -14 -20 -14 -22 0 -28 26 -7 33 16 6 27 -1 27 -19z"/> <path d="M2805 1530 c4 -6 11 -8 16 -5 14 9 11 15 -7 15 -8 0 -12 -5 -9 -10z"/> <path d="M2460 1329 c0 -18 -2 -19 -15 -9 -9 7 -15 8 -15 2 0 -5 7 -12 15 -16 8 -3 15 -17 15 -31 0 -23 -2 -24 -20 -15 -11 6 -20 17 -20 25 0 7 -5 17 -12 21 -8 5 -9 2 -5 -10 6 -14 3 -15 -13 -6 -12 6 -20 7 -20 1 0 -5 6 -12 13 -14 10 -4 10 -6 0 -6 -7 -1 -13 -6 -13 -12 0 -7 11 -9 29 -6 51 10 80 -45 44 -85 -9 -10 -11 -18 -5 -18 6 0 13 6 16 13 3 6 3 2 1 -10 -3 -12 -1 -24 5 -28 6 -4 10 5 10 22 0 21 3 24 10 13 5 -8 12 -12 15 -8 3 3 -1 13 -10 21 -34 35 -7 83 46 79 17 -1 29 3 29 10 0 6 -3 9 -6 5 -10 -9 -32 16 -27 30 3 7 0 13 -6 13 -6 0 -11 -9 -11 -20 0 -10 -9 -24 -20 -30 -17 -9 -20 -8 -20 8 0 11 7 25 15 32 8 7 15 17 15 22 0 6 -7 4 -16 -3 -15 -12 -16 -11 -10 9 5 13 3 22 -3 22 -6 0 -11 -10 -11 -21z"/> <path d="M414 1296 c-14 -15 5 -46 29 -46 17 0 32 34 22 50 -9 14 -38 12 -51 -4z"/> <path d="M2545 1290 c-3 -5 -1 -10 4 -10 6 0 11 5 11 10 0 6 -2 10 -4 10 -3 0 -8 -4 -11 -10z"/> <path d="M295 1243 c6 -27 6 -27 -14 -9 -14 13 -21 15 -21 6 0 -7 7 -18 16 -25 9 -6 18 -26 19 -43 2 -29 1 -30 -21 -20 -13 6 -25 15 -25 20 -5 31 -20 58 -30 52 -5 -3 -4 -15 2 -27 12 -21 12 -21 -14 -4 -16 10 -28 13 -32 7 -3 -6 6 -15 22 -22 27 -11 27 -12 6 -15 -13 -3 -23 -8 -23 -13 0 -5 15 -6 34 -3 18 3 44 0 56 -7 l23 -12 -24 -13 c-13 -7 -38 -11 -56 -8 -34 6 -48 -12 -15 -20 14 -4 14 -6 -5 -12 -24 -8 -30 -20 -14 -29 5 -3 14 1 21 9 7 8 17 15 23 15 7 0 7 -4 -1 -12 -17 -17 -15 -28 4 -28 8 0 13 4 9 9 -3 5 -1 12 5 16 6 4 8 10 5 15 -5 9 32 40 48 40 13 0 -4 -64 -19 -73 -8 -4 -14 -15 -14 -24 0 -14 3 -14 21 3 20 18 20 18 14 -9 -6 -21 -4 -27 10 -27 14 0 16 6 10 27 -6 27 -6 27 14 9 12 -11 21 -15 21 -9 0 5 -9 18 -20 28 -19 18 -28 75 -12 75 14 0 53 -41 47 -49 -2 -5 3 -15 12 -22 15 -13 16 -11 11 9 -6 22 -6 23 17 8 13 -9 26 -12 29 -7 6 9 -14 31 -26 28 -3 -1 -10 1 -14 6 -4 4 2 7 14 7 12 0 22 5 22 11 0 8 -13 10 -37 6 -25 -4 -44 -1 -56 8 -18 13 -18 14 3 25 13 7 37 9 56 5 20 -3 34 -2 34 4 0 5 -10 12 -22 14 l-23 4 23 8 c12 4 22 14 22 21 0 18 -8 18 -27 -1 -19 -19 -31 -11 -14 9 8 9 8 16 2 20 -6 4 -15 -3 -21 -14 -6 -11 -8 -20 -4 -20 10 0 -17 -30 -38 -41 -17 -9 -18 -7 -13 23 3 18 12 38 20 44 15 11 21 34 9 34 -4 0 -13 -8 -21 -17 -12 -16 -13 -15 -7 10 5 21 3 27 -11 27 -14 0 -16 -6 -10 -27z"/> <path d="M2370 1219 c0 -4 9 -9 19 -12 15 -4 18 -11 14 -27 -4 -16 -3 -21 5 -16 7 4 12 14 12 23 0 9 7 21 15 27 13 9 8 11 -25 11 -22 0 -40 -2 -40 -6z"/> <path d="M2493 1215 c8 -6 16 -18 18 -28 2 -10 9 -17 14 -17 6 1 9 6 8 11 -2 4 4 6 12 3 8 -4 15 -1 15 5 0 6 -8 11 -17 11 -15 0 -15 2 2 14 17 12 15 13 -23 12 -32 0 -39 -3 -29 -11z"/> <path d="M2365 1190 c-3 -5 1 -10 9 -10 8 0 18 5 21 10 3 6 -1 10 -9 10 -8 0 -18 -4 -21 -10z"/> <path d="M2726 1174 c-19 -19 -20 -43 -2 -66 28 -38 86 -13 86 36 0 41 -54 61 -84 30z m58 -27 c11 -18 -4 -36 -30 -37 -18 0 -26 31 -13 47 14 16 29 13 43 -10z"/> <path d="M2610 1031 c-7 -15 -6 -24 6 -36 16 -15 18 -15 37 4 17 17 18 22 7 35 -17 22 -37 20 -50 -3z"/> <path d="M2226 974 c-6 -17 9 -54 23 -54 4 0 16 9 27 21 18 20 18 21 -1 35 -25 18 -41 18 -49 -2z"/> <path d="M2467 895 c6 -50 0 -56 -27 -22 -14 17 -21 19 -30 10 -10 -9 -4 -20 24 -47 32 -32 36 -43 36 -87 0 -48 -1 -49 -22 -38 -52 27 -78 51 -78 73 0 12 -3 26 -7 30 -5 4 -8 13 -8 19 0 7 -7 12 -15 12 -16 0 -16 -3 -4 -49 l7 -29 -38 26 c-21 14 -42 24 -47 21 -18 -11 -6 -31 27 -43 43 -15 45 -27 4 -35 -19 -3 -29 -11 -26 -18 2 -7 8 -12 13 -11 5 0 25 4 44 8 53 9 52 10 93 -15 l37 -22 -42 -27 c-41 -26 -45 -27 -95 -15 -50 11 -53 11 -53 -7 0 -16 7 -19 50 -19 28 0 50 -4 50 -8 0 -5 -13 -9 -28 -9 -33 0 -82 -29 -82 -49 0 -20 10 -18 54 12 l39 27 -7 -26 c-3 -14 -9 -33 -12 -42 -5 -13 -2 -16 12 -13 10 2 20 9 20 16 1 6 2 13 4 15 1 1 3 10 5 20 7 36 15 46 54 72 22 14 43 25 46 25 3 0 5 -22 5 -49 0 -42 -5 -54 -35 -87 -19 -21 -35 -42 -35 -46 0 -15 24 -8 47 14 l23 21 0 -52 c0 -38 4 -51 13 -48 8 2 11 19 9 50 -4 50 5 60 26 27 12 -20 42 -28 42 -11 0 5 -13 23 -29 40 -20 21 -30 45 -35 82 -4 28 -5 53 -3 56 3 3 61 -26 85 -43 2 -1 5 -8 6 -16 2 -7 8 -26 14 -41 7 -16 12 -33 12 -38 0 -5 7 -9 15 -9 21 0 19 29 -4 67 -18 29 -18 43 0 43 5 0 6 -6 3 -14 -8 -21 75 -73 87 -54 6 9 -3 18 -31 32 -48 24 -51 36 -10 36 23 0 30 5 30 19 0 14 -5 19 -17 16 -85 -21 -88 -21 -131 3 -47 27 -47 33 0 53 18 7 36 17 39 21 3 4 27 1 55 -7 27 -8 50 -15 52 -15 1 0 2 9 2 20 0 16 -7 20 -30 20 -40 0 -38 16 5 31 35 13 52 34 35 44 -17 10 -90 -41 -90 -63 0 -7 -4 -11 -10 -7 -5 3 -1 19 10 38 11 18 20 40 20 50 0 25 -26 21 -35 -5 -4 -13 -8 -26 -10 -30 -6 -19 -7 -23 -6 -30 1 -7 -82 -68 -93 -68 -3 0 -3 23 -1 50 2 39 10 58 35 86 24 27 29 39 20 48 -11 11 -15 8 -56 -48 -7 -11 -17 -16 -21 -12 -4 4 -2 10 4 14 6 4 14 29 17 55 5 42 3 47 -14 47 -17 0 -19 -5 -13 -45z m-112 -145 c-3 -5 -10 -10 -16 -10 -5 0 -9 5 -9 10 0 6 7 10 16 10 8 0 12 -4 9 -10z m140 -73 c0 -9 -3 -17 -7 -17 -5 0 -12 0 -17 0 -8 0 -8 11 -2 38 3 12 26 -8 26 -21z m0 -157 c3 -5 -1 -10 -9 -10 -9 0 -16 5 -16 10 0 6 4 10 9 10 6 0 13 -4 16 -10z"/> <path d="M143 815 c-19 -21 -16 -42 8 -59 19 -13 24 -13 45 1 28 18 31 41 7 59 -23 17 -45 17 -60 -1z m44 -25 c2 -22 1 -23 -21 -14 -13 5 -14 9 -5 20 16 19 24 17 26 -6z"/> <path d="M2285 270 c-26 -29 -14 -65 25 -68 24 -2 33 3 42 23 9 21 8 28 -7 45 -23 25 -37 25 -60 0z m49 -40 c-14 -14 -38 5 -30 26 6 16 8 16 23 1 11 -11 14 -20 7 -27z"/> <path d="M2452 264 c-35 -24 -28 -70 14 -92 18 -10 27 -8 48 9 30 24 34 59 8 82 -23 21 -41 21 -70 1z m61 -34 c6 -23 -15 -43 -40 -38 -24 4 -29 39 -8 54 21 16 41 9 48 -16z"/> </g> </svg> 